<?xml version="1.0" standalone="no"?>
<!DOCTYPE svg PUBLIC "-//W3C//DTD SVG 20010904//EN"
 "http://www.w3.org/TR/2001/REC-SVG-20010904/DTD/svg10.dtd">
<svg version="1.0" xmlns="http://www.w3.org/2000/svg"
 width="534.000000pt" height="534.000000pt" viewBox="0 0 534.000000 534.000000"
 preserveAspectRatio="xMidYMid meet">

<g transform="translate(0.000000,534.000000) scale(0.100000,-0.100000)"
fill="#000000" stroke="none">
<path d="M2460 5223 c-421 -43 -788 -185 -1076 -417 -110 -89 -258 -246 -331
-353 -63 -91 -123 -202 -123 -226 0 -8 -51 -75 -112 -149 -62 -74 -156 -192
-208 -262 -93 -124 -96 -126 -134 -126 -167 0 -332 -264 -283 -454 13 -53 13
-63 -5 -129 -28 -101 -27 -250 1 -338 24 -76 89 -180 133 -212 16 -12 39 -37
50 -56 12 -18 53 -54 92 -79 39 -25 72 -46 74 -48 2 -1 -13 -53 -32 -114 -205
-647 -49 -1332 393 -1723 185 -164 476 -304 785 -377 577 -137 1520 -130 2101
16 406 102 722 295 904 554 140 199 240 474 272 743 30 262 -16 632 -114 900
l-25 68 69 46 c38 25 74 54 80 65 6 11 42 54 79 94 73 79 119 161 140 253 17
73 8 218 -20 304 -18 58 -19 73 -9 104 6 21 10 66 7 108 -12 184 -158 346
-315 350 l-55 2 -102 115 c-55 64 -143 161 -193 217 -51 55 -93 108 -93 116 0
26 -80 176 -144 270 -115 169 -328 368 -513 479 -220 132 -508 224 -798 256
-84 9 -416 11 -495 3z m440 -413 c363 -38 661 -171 886 -395 80 -80 174 -200
174 -222 0 -5 -32 -19 -71 -33 -115 -39 -251 -139 -352 -259 l-36 -44 -61 27
c-236 106 -489 158 -770 158 -254 -1 -427 -32 -631 -113 l-99 -40 -61 65
c-121 130 -284 227 -420 250 l-71 12 62 78 c226 280 596 467 1020 515 107 12
319 12 430 1z m115 -894 c221 -46 432 -129 626 -245 88 -53 113 -73 111 -87
-2 -11 -6 -49 -9 -85 -24 -308 425 -966 772 -1131 76 -36 131 -37 185 -3 l39
25 35 -109 c103 -319 128 -683 66 -950 -71 -300 -178 -509 -350 -681 -279
-280 -725 -432 -1400 -480 -188 -13 -636 -13 -815 0 -895 67 -1422 361 -1646
921 -137 341 -154 715 -50 1074 16 55 34 113 40 128 10 27 12 27 33 13 27 -19
86 -21 125 -4 54 23 119 72 202 152 258 250 495 677 534 963 l12 85 90 68
c283 215 555 333 855 370 134 16 409 4 545 -24z"/>
<path d="M3262 2780 c-163 -34 -328 -181 -363 -323 -29 -118 -4 -265 63 -377
19 -30 76 -109 129 -175 134 -170 144 -184 204 -291 194 -343 381 -464 608
-394 160 49 330 215 377 369 24 77 26 193 5 275 -21 78 -76 187 -134 263 -64
84 -493 526 -557 575 -90 68 -227 100 -332 78z m252 -511 c15 -12 26 -30 26
-45 0 -26 -23 -78 -45 -104 -7 -8 -18 -34 -24 -57 -15 -54 -34 -73 -76 -73
-52 0 -75 36 -75 117 0 77 16 120 59 156 41 34 96 36 135 6z"/>
<path d="M1971 2754 c-127 -34 -285 -147 -394 -281 -128 -158 -187 -228 -283
-332 -113 -123 -156 -195 -180 -297 -47 -199 57 -450 234 -562 109 -70 271
-94 393 -59 119 35 202 120 324 334 38 65 112 179 165 253 293 406 343 648
172 823 -114 117 -277 163 -431 121z m-54 -456 c32 -30 29 -58 -19 -151 -56
-107 -103 -157 -150 -157 -126 0 -87 237 51 310 48 26 89 25 118 -2z"/>
<path d="M2571 1535 c-90 -20 -187 -60 -250 -103 -72 -49 -96 -82 -87 -119 10
-38 110 -133 228 -216 53 -38 99 -76 102 -84 11 -26 -33 -62 -102 -83 -35 -11
-74 -20 -87 -20 -44 0 -151 40 -228 85 -72 43 -81 45 -112 35 -55 -18 -61 -71
-15 -143 50 -79 169 -140 297 -153 63 -6 72 -10 116 -51 26 -24 78 -59 115
-76 60 -28 77 -32 157 -32 79 0 96 3 144 28 49 26 141 109 141 127 0 4 48 10
108 12 96 3 113 7 161 33 99 54 169 170 140 231 -12 24 -21 30 -54 32 -34 2
-50 -4 -98 -38 -100 -69 -134 -83 -222 -87 -69 -4 -86 -1 -125 19 -25 13 -51
35 -60 50 -13 24 -13 29 4 47 11 12 60 49 110 83 154 105 225 182 212 232 -13
51 -137 133 -261 172 -101 32 -243 40 -334 19z m205 -723 l69 -64 -23 -19
c-67 -54 -182 -50 -258 10 l-25 20 43 25 c24 14 59 41 78 61 19 19 37 34 41
33 3 -2 37 -32 75 -66z"/>
</g>
</svg>
